<svg width="17" height="22" viewBox="0 0 17 22" fill="none" xmlns="http://www.w3.org/2000/svg">
<g clip-path="url(#clip0)">
<path d="M13.6941 11.5457C13.6855 9.96875 14.3988 8.77852 15.8426 7.90195C15.0348 6.74609 13.8145 6.11016 12.2031 5.98555C10.6777 5.86523 9.01055 6.875 8.40039 6.875C7.75586 6.875 6.27773 6.02852 5.11758 6.02852C2.71992 6.06719 0.171875 7.94063 0.171875 11.752C0.171875 12.8777 0.378125 14.0408 0.790625 15.241C1.34063 16.818 3.32578 20.6852 5.39687 20.6207C6.47969 20.5949 7.24453 19.8516 8.65391 19.8516C10.0203 19.8516 10.7293 20.6207 11.9367 20.6207C14.025 20.5906 15.8211 17.0758 16.3453 15.4945C13.5437 14.1754 13.6941 11.6273 13.6941 11.5457ZM11.2621 4.49023C12.4352 3.09805 12.3277 1.83047 12.2934 1.375C11.2578 1.43516 10.059 2.07969 9.37578 2.87461C8.62383 3.72539 8.18125 4.77813 8.27578 5.96406C9.39727 6.05 10.4199 5.47422 11.2621 4.49023Z" fill="white"/>
</g>
<defs>
<clipPath id="clip0">
<rect width="16.5" height="22" fill="white"/>
</clipPath>
</defs>
</svg>
